G04 (created by PCBNEW-RS274X (2011-11-27 BZR 3249)-stable) date 1/26/2012 8:48:17 PM*
G01*
G70*
G90*
%MOIN*%
G04 Gerber Fmt 3.4, Leading zero omitted, Abs format*
%FSLAX34Y34*%
G04 APERTURE LIST*
%ADD10C,0.006000*%
%ADD11C,0.015000*%
G04 APERTURE END LIST*
G54D10*
G54D11*
X45669Y-48819D02*
X45669Y-31201D01*
X64370Y-49803D02*
X46654Y-49803D01*
X65354Y-31201D02*
X65354Y-48819D01*
X46654Y-30217D02*
X64370Y-30217D01*
X64370Y-49803D02*
X64455Y-49799D01*
X64540Y-49788D01*
X64624Y-49769D01*
X64706Y-49743D01*
X64785Y-49710D01*
X64862Y-49671D01*
X64934Y-49625D01*
X65002Y-49572D01*
X65065Y-49514D01*
X65123Y-49451D01*
X65176Y-49383D01*
X65222Y-49310D01*
X65261Y-49234D01*
X65294Y-49155D01*
X65320Y-49073D01*
X65339Y-48989D01*
X65350Y-48904D01*
X65354Y-48819D01*
X65354Y-31201D02*
X65350Y-31116D01*
X65339Y-31031D01*
X65320Y-30947D01*
X65294Y-30865D01*
X65261Y-30786D01*
X65222Y-30710D01*
X65176Y-30637D01*
X65123Y-30569D01*
X65065Y-30506D01*
X65002Y-30448D01*
X64934Y-30395D01*
X64862Y-30349D01*
X64785Y-30310D01*
X64706Y-30277D01*
X64624Y-30251D01*
X64540Y-30232D01*
X64455Y-30221D01*
X64370Y-30217D01*
X46654Y-30216D02*
X46569Y-30220D01*
X46483Y-30231D01*
X46400Y-30250D01*
X46318Y-30276D01*
X46238Y-30309D01*
X46162Y-30348D01*
X46090Y-30395D01*
X46021Y-30447D01*
X45958Y-30505D01*
X45900Y-30568D01*
X45848Y-30637D01*
X45801Y-30709D01*
X45762Y-30785D01*
X45729Y-30865D01*
X45703Y-30947D01*
X45684Y-31030D01*
X45673Y-31116D01*
X45669Y-31201D01*
X45670Y-48819D02*
X45674Y-48904D01*
X45685Y-48989D01*
X45704Y-49073D01*
X45730Y-49155D01*
X45763Y-49234D01*
X45802Y-49310D01*
X45848Y-49383D01*
X45901Y-49451D01*
X45959Y-49514D01*
X46022Y-49572D01*
X46090Y-49625D01*
X46163Y-49671D01*
X46239Y-49710D01*
X46318Y-49743D01*
X46400Y-49769D01*
X46484Y-49788D01*
X46569Y-49799D01*
X46654Y-49803D01*
M02*
