M48
METRIC,TZ
T1C0.787
T2C0.914
T3C1.118
T4C1.887
T5C3.175
%
G90
G05
T1
X151130Y-118110
X151130Y-120650
X152400Y-119380
T2
X151130Y-115570
X151130Y-123190
X153670Y-115570
X153670Y-123190
T3
X118110Y-085090
X118110Y-087630
X118110Y-090170
X118110Y-092710
X118110Y-095250
X118110Y-097790
X118110Y-105410
X118110Y-107950
X118110Y-110490
X118110Y-113030
X118110Y-115570
X118110Y-118110
X120650Y-078740
X120650Y-081280
X120650Y-085090
X120650Y-087630
X120650Y-090170
X120650Y-092710
X120650Y-095250
X120650Y-097790
X120650Y-105410
X120650Y-107950
X120650Y-110490
X120650Y-113030
X120650Y-115570
X120650Y-118110
X120650Y-121920
X120650Y-124460
X123190Y-078740
X123190Y-081280
X123190Y-085090
X123190Y-087630
X123190Y-090170
X123190Y-092710
X123190Y-095250
X123190Y-097790
X123190Y-105410
X123190Y-107950
X123190Y-110490
X123190Y-113030
X123190Y-115570
X123190Y-118110
X123190Y-121920
X123190Y-124460
X125730Y-078740
X125730Y-081280
X125730Y-085090
X125730Y-087630
X125730Y-090170
X125730Y-092710
X125730Y-095250
X125730Y-097790
X125730Y-105410
X125730Y-107950
X125730Y-110490
X125730Y-113030
X125730Y-115570
X125730Y-118110
X125730Y-121920
X125730Y-124460
X128270Y-078740
X128270Y-081280
X128270Y-085090
X128270Y-087630
X128270Y-090170
X128270Y-092710
X128270Y-095250
X128270Y-097790
X128270Y-105410
X128270Y-107950
X128270Y-110490
X128270Y-113030
X128270Y-115570
X128270Y-118110
X128270Y-121920
X128270Y-124460
X130810Y-078740
X130810Y-081280
X130810Y-085090
X130810Y-087630
X130810Y-090170
X130810Y-092710
X130810Y-095250
X130810Y-097790
X130810Y-105410
X130810Y-107950
X130810Y-110490
X130810Y-113030
X130810Y-115570
X130810Y-118110
X130810Y-121920
X130810Y-124460
X133350Y-078740
X133350Y-081280
X133350Y-085090
X133350Y-087630
X133350Y-090170
X133350Y-092710
X133350Y-095250
X133350Y-097790
X133350Y-105410
X133350Y-107950
X133350Y-110490
X133350Y-113030
X133350Y-115570
X133350Y-118110
X133350Y-121920
X133350Y-124460
X135890Y-078740
X135890Y-081280
X135890Y-085090
X135890Y-087630
X135890Y-090170
X135890Y-092710
X135890Y-095250
X135890Y-097790
X135890Y-105410
X135890Y-107950
X135890Y-110490
X135890Y-113030
X135890Y-115570
X135890Y-118110
X135890Y-121920
X135890Y-124460
X138430Y-078740
X138430Y-081280
X138430Y-085090
X138430Y-087630
X138430Y-090170
X138430Y-092710
X138430Y-095250
X138430Y-097790
X138430Y-105410
X138430Y-107950
X138430Y-110490
X138430Y-113030
X138430Y-115570
X138430Y-118110
X138430Y-121920
X138430Y-124460
X140970Y-078740
X140970Y-081280
X140970Y-085090
X140970Y-087630
X140970Y-090170
X140970Y-092710
X140970Y-095250
X140970Y-097790
X140970Y-105410
X140970Y-107950
X140970Y-110490
X140970Y-113030
X140970Y-115570
X140970Y-118110
X140970Y-121920
X140970Y-124460
X143510Y-078740
X143510Y-081280
X143510Y-085090
X143510Y-087630
X143510Y-090170
X143510Y-092710
X143510Y-095250
X143510Y-097790
X143510Y-105410
X143510Y-107950
X143510Y-110490
X143510Y-113030
X143510Y-115570
X143510Y-118110
X143510Y-121920
X143510Y-124460
X146050Y-078740
X146050Y-081280
X146050Y-085090
X146050Y-087630
X146050Y-090170
X146050Y-092710
X146050Y-095250
X146050Y-097790
X146050Y-105410
X146050Y-107950
X146050Y-110490
X146050Y-113030
X146050Y-115570
X146050Y-118110
X146050Y-121920
X146050Y-124460
X148590Y-078740
X148590Y-081280
X148590Y-085090
X148590Y-087630
X148590Y-090170
X148590Y-092710
X148590Y-095250
X148590Y-097790
X148590Y-105410
X148590Y-107950
X148590Y-110490
X148590Y-113030
X148590Y-115570
X148590Y-118110
X148590Y-121920
X148590Y-124460
X151130Y-078740
X151130Y-081280
X151130Y-085090
X151130Y-087630
X151130Y-090170
X151130Y-092710
X151130Y-095250
X151130Y-097790
X151130Y-105410
X151130Y-107950
X151130Y-110490
X151130Y-113030
X153670Y-078740
X153670Y-081280
X153670Y-085090
X153670Y-087630
X153670Y-090170
X153670Y-092710
X153670Y-095250
X153670Y-097790
X153670Y-105410
X153670Y-107950
X153670Y-110490
X153670Y-113030
X156210Y-078740
X156210Y-081280
X156210Y-085090
X156210Y-087630
X156210Y-090170
X156210Y-092710
X156210Y-095250
X156210Y-097790
X157404Y-104430
X157404Y-108930
X157480Y-100965
X157480Y-112395
X158750Y-078740
X158750Y-081280
X158750Y-085090
X158750Y-087630
X158750Y-090170
X158750Y-092710
X158750Y-095250
X158750Y-097790
X161290Y-078740
X161290Y-081280
X161290Y-085090
X161290Y-087630
X161290Y-090170
X161290Y-092710
X161290Y-095250
X161290Y-097790
X163830Y-085090
X163830Y-087630
X163830Y-090170
X163830Y-092710
X163830Y-095250
X163830Y-097790
X163830Y-100965
X163830Y-112395
X163906Y-104430
X163906Y-108930
T4
X155799Y-120079
X158798Y-115380
X158798Y-124778
X161798Y-120079
T5
X120650Y-101600
X153670Y-101600
T0
M30
