G04 (created by PCBNEW-RS274X (2012-01-19 BZR 3256)-stable) date 4/28/2012 8:19:37 PM*
G01*
G70*
G90*
%MOIN*%
G04 Gerber Fmt 3.4, Leading zero omitted, Abs format*
%FSLAX34Y34*%
G04 APERTURE LIST*
%ADD10C,0.006000*%
%ADD11C,0.088000*%
%ADD12R,0.088000X0.088000*%
%ADD13C,0.120000*%
%ADD14R,0.120000X0.120000*%
%ADD15C,0.170000*%
%ADD16R,0.080000X0.080000*%
%ADD17C,0.080000*%
%ADD18C,0.075000*%
G04 APERTURE END LIST*
G54D10*
G54D11*
X52500Y-48000D03*
X53500Y-48000D03*
X54500Y-48000D03*
X55500Y-48000D03*
X56500Y-48000D03*
X57500Y-48000D03*
X58500Y-48000D03*
X51500Y-48000D03*
X50500Y-48000D03*
X49500Y-48000D03*
X48500Y-48000D03*
X47500Y-48000D03*
X61970Y-42886D03*
X61970Y-41114D03*
X64530Y-42886D03*
X64530Y-41114D03*
X62000Y-44250D03*
X47500Y-36500D03*
X47500Y-37500D03*
X47500Y-35500D03*
X48500Y-36500D03*
X48500Y-37500D03*
X48500Y-35500D03*
X49500Y-36500D03*
X49500Y-37500D03*
X49500Y-35500D03*
X50500Y-36500D03*
X50500Y-37500D03*
X50500Y-35500D03*
X51500Y-36500D03*
X51500Y-37500D03*
X51500Y-35500D03*
X52500Y-36500D03*
X52500Y-37500D03*
X52500Y-35500D03*
X53500Y-36500D03*
X53500Y-37500D03*
X53500Y-35500D03*
X54500Y-36500D03*
X54500Y-37500D03*
X54500Y-35500D03*
X55500Y-36500D03*
X55500Y-37500D03*
X55500Y-35500D03*
X56500Y-36500D03*
X56500Y-37500D03*
X56500Y-35500D03*
X57500Y-36500D03*
X57500Y-37500D03*
X57500Y-35500D03*
X58500Y-36500D03*
X58500Y-37500D03*
X58500Y-35500D03*
X59500Y-36500D03*
X59500Y-37500D03*
X59500Y-35500D03*
X60500Y-36500D03*
X60500Y-35500D03*
X56500Y-43500D03*
X56500Y-44500D03*
X56500Y-42500D03*
X60500Y-42500D03*
X60500Y-41500D03*
X63500Y-38500D03*
X63500Y-37500D03*
X63500Y-36500D03*
X63500Y-35500D03*
X63500Y-34500D03*
X63500Y-33500D03*
X64500Y-38500D03*
X64500Y-37500D03*
X64500Y-36500D03*
X64500Y-35500D03*
X64500Y-34500D03*
X64500Y-33500D03*
X46500Y-43500D03*
X46500Y-44500D03*
X46500Y-42500D03*
X47500Y-43500D03*
X47500Y-44500D03*
X47500Y-42500D03*
X48500Y-43500D03*
X48500Y-44500D03*
X48500Y-42500D03*
X49500Y-43500D03*
X49500Y-44500D03*
X49500Y-42500D03*
X50500Y-43500D03*
X50500Y-44500D03*
X50500Y-42500D03*
X51500Y-43500D03*
X51500Y-44500D03*
X51500Y-42500D03*
X52500Y-43500D03*
X52500Y-44500D03*
X52500Y-42500D03*
X53500Y-43500D03*
X53500Y-44500D03*
X53500Y-42500D03*
X54500Y-43500D03*
X54500Y-44500D03*
X54500Y-42500D03*
X55500Y-43500D03*
X55500Y-44500D03*
X55500Y-42500D03*
X57500Y-43500D03*
X57500Y-44500D03*
X57500Y-42500D03*
X58500Y-43500D03*
X58500Y-44500D03*
X58500Y-42500D03*
X59500Y-43500D03*
X59500Y-44500D03*
X59500Y-42500D03*
X60500Y-38500D03*
X60500Y-37500D03*
X62000Y-39750D03*
X60500Y-44500D03*
X60500Y-43500D03*
X46500Y-45500D03*
X47500Y-45500D03*
X48500Y-45500D03*
X49500Y-45500D03*
X50500Y-45500D03*
X51500Y-45500D03*
X52500Y-45500D03*
X52500Y-34500D03*
X51500Y-34500D03*
X50500Y-34500D03*
X49500Y-34500D03*
X48500Y-34500D03*
X47500Y-34500D03*
X46500Y-34500D03*
X46500Y-46500D03*
X47500Y-46500D03*
X48500Y-46500D03*
X49500Y-46500D03*
X50500Y-46500D03*
X51500Y-46500D03*
X52500Y-46500D03*
X52500Y-33500D03*
X51500Y-33500D03*
X50500Y-33500D03*
X49500Y-33500D03*
X48500Y-33500D03*
X47500Y-33500D03*
X46500Y-33500D03*
X55500Y-32000D03*
X56500Y-32000D03*
X57500Y-32000D03*
X58500Y-32000D03*
X59500Y-32000D03*
X60500Y-32000D03*
X61500Y-32000D03*
X62500Y-32000D03*
X63500Y-32000D03*
X47500Y-32000D03*
X48500Y-32000D03*
X54500Y-32000D03*
X53500Y-32000D03*
X52500Y-32000D03*
X51500Y-32000D03*
X50500Y-32000D03*
X49500Y-32000D03*
X55500Y-31000D03*
X56500Y-31000D03*
X57500Y-31000D03*
X58500Y-31000D03*
X59500Y-31000D03*
X60500Y-31000D03*
X61500Y-31000D03*
X62500Y-31000D03*
X63500Y-31000D03*
X47500Y-31000D03*
X48500Y-31000D03*
X54500Y-31000D03*
X53500Y-31000D03*
X52500Y-31000D03*
X51500Y-31000D03*
X50500Y-31000D03*
X49500Y-31000D03*
X60500Y-33500D03*
X59500Y-33500D03*
X58500Y-33500D03*
X57500Y-33500D03*
X56500Y-33500D03*
X55500Y-33500D03*
X54500Y-33500D03*
X53500Y-33500D03*
X60500Y-34500D03*
X59500Y-34500D03*
X58500Y-34500D03*
X57500Y-34500D03*
X56500Y-34500D03*
X55500Y-34500D03*
X54500Y-34500D03*
X53500Y-34500D03*
X47500Y-41500D03*
X48500Y-41500D03*
X49500Y-41500D03*
X50500Y-41500D03*
X51500Y-41500D03*
X52500Y-41500D03*
X53500Y-41500D03*
X54500Y-41500D03*
X55500Y-41500D03*
X56500Y-41500D03*
X57500Y-41500D03*
X58500Y-41500D03*
X59500Y-41500D03*
G54D12*
X46500Y-41500D03*
G54D11*
X59500Y-38500D03*
X58500Y-38500D03*
X57500Y-38500D03*
X56500Y-38500D03*
X55500Y-38500D03*
X54500Y-38500D03*
X53500Y-38500D03*
X52500Y-38500D03*
X51500Y-38500D03*
X50500Y-38500D03*
X49500Y-38500D03*
X48500Y-38500D03*
X47500Y-38500D03*
X46500Y-38500D03*
X46500Y-36500D03*
X46500Y-37500D03*
X46500Y-35500D03*
X64500Y-44250D03*
X64500Y-39750D03*
X61500Y-38500D03*
X61500Y-37500D03*
X61500Y-36500D03*
X61500Y-35500D03*
X61500Y-34500D03*
X61500Y-33500D03*
X62500Y-38500D03*
X62500Y-37500D03*
X62500Y-36500D03*
X62500Y-35500D03*
X62500Y-34500D03*
X62500Y-33500D03*
G54D13*
X63700Y-47275D03*
G54D14*
X61338Y-47275D03*
G54D13*
X62519Y-45425D03*
X62519Y-49125D03*
G54D15*
X60500Y-40000D03*
X47500Y-40000D03*
G54D16*
X60500Y-45500D03*
G54D17*
X59500Y-45500D03*
G54D16*
X59500Y-48500D03*
G54D17*
X60500Y-48500D03*
G54D11*
X58500Y-46500D03*
X57500Y-46500D03*
X56500Y-46500D03*
X55500Y-46500D03*
X54500Y-46500D03*
X53500Y-46500D03*
X58500Y-45500D03*
X57500Y-45500D03*
X56500Y-45500D03*
X55500Y-45500D03*
X54500Y-45500D03*
X53500Y-45500D03*
G54D18*
X59500Y-46500D03*
X60000Y-47000D03*
X59500Y-47500D03*
G54D11*
X52500Y-49000D03*
X53500Y-49000D03*
X54500Y-49000D03*
X55500Y-49000D03*
X56500Y-49000D03*
X57500Y-49000D03*
X58500Y-49000D03*
X51500Y-49000D03*
X50500Y-49000D03*
X49500Y-49000D03*
X48500Y-49000D03*
X47500Y-49000D03*
M02*
